<mxfile host="app.diagrams.net" modified="2023-11-25T01:14:22.422Z" agent="Mozilla/5.0 (Windows NT 10.0; Win64; x64) AppleWebKit/537.36 (KHTML, like Gecko) Chrome/119.0.0.0 Safari/537.36 Edg/119.0.0.0" etag="1ugQzBVfZ2gABneTQbTV" version="22.1.3" type="device">
  <diagram name="第 1 页" id="h136pcTpXReEDVyURnkJ">
    <mxGraphModel dx="792" dy="429" grid="1" gridSize="10" guides="1" tooltips="1" connect="1" arrows="1" fold="1" page="1" pageScale="1" pageWidth="827" pageHeight="1169" math="0" shadow="0">
      <root>
        <mxCell id="0" />
        <mxCell id="1" parent="0" />
        <mxCell id="aFJt68EdCN7a-wkORS-8-2" value="" style="rounded=0;whiteSpace=wrap;html=1;" parent="1" vertex="1">
          <mxGeometry x="89" y="30" width="511" height="250" as="geometry" />
        </mxCell>
        <mxCell id="aFJt68EdCN7a-wkORS-8-3" value="&lt;font style=&quot;font-size: 16px;&quot;&gt;朗读功能&lt;/font&gt;" style="rounded=0;whiteSpace=wrap;html=1;" parent="1" vertex="1">
          <mxGeometry x="80" y="20" width="120" height="40" as="geometry" />
        </mxCell>
        <mxCell id="aFJt68EdCN7a-wkORS-8-4" value="用户" style="shape=umlActor;verticalLabelPosition=bottom;verticalAlign=top;html=1;outlineConnect=0;" parent="1" vertex="1">
          <mxGeometry x="140" y="130" width="30" height="60" as="geometry" />
        </mxCell>
        <mxCell id="aFJt68EdCN7a-wkORS-8-5" value="1.选中文本" style="text;html=1;strokeColor=none;fillColor=none;align=center;verticalAlign=middle;whiteSpace=wrap;rounded=0;" parent="1" vertex="1">
          <mxGeometry x="215" y="130" width="60" height="30" as="geometry" />
        </mxCell>
        <mxCell id="aFJt68EdCN7a-wkORS-8-7" value="3.点击朗读选项" style="text;html=1;strokeColor=none;fillColor=none;align=center;verticalAlign=middle;whiteSpace=wrap;rounded=0;" parent="1" vertex="1">
          <mxGeometry x="215" y="150" width="90" height="30" as="geometry" />
        </mxCell>
        <mxCell id="aFJt68EdCN7a-wkORS-8-8" value="2.显示便签界面" style="text;html=1;strokeColor=none;fillColor=none;align=center;verticalAlign=middle;whiteSpace=wrap;rounded=0;" parent="1" vertex="1">
          <mxGeometry x="369" y="110" width="90" height="30" as="geometry" />
        </mxCell>
        <mxCell id="aFJt68EdCN7a-wkORS-8-10" value="4.输出语音" style="text;html=1;strokeColor=none;fillColor=none;align=center;verticalAlign=middle;whiteSpace=wrap;rounded=0;" parent="1" vertex="1">
          <mxGeometry x="360" y="130" width="90" height="30" as="geometry" />
        </mxCell>
        <mxCell id="aFJt68EdCN7a-wkORS-8-14" value="NoteExitActivity" style="rounded=0;whiteSpace=wrap;html=1;" parent="1" vertex="1">
          <mxGeometry x="350" y="180" width="120" height="60" as="geometry" />
        </mxCell>
        <mxCell id="aFJt68EdCN7a-wkORS-8-18" value="" style="endArrow=classic;html=1;rounded=0;exitX=1;exitY=1;exitDx=0;exitDy=0;exitPerimeter=0;entryX=-0.017;entryY=0.15;entryDx=0;entryDy=0;entryPerimeter=0;" parent="1" source="aFJt68EdCN7a-wkORS-8-4" target="aFJt68EdCN7a-wkORS-8-14" edge="1">
          <mxGeometry width="50" height="50" relative="1" as="geometry">
            <mxPoint x="390" y="340" as="sourcePoint" />
            <mxPoint x="440" y="290" as="targetPoint" />
          </mxGeometry>
        </mxCell>
      </root>
    </mxGraphModel>
  </diagram>
</mxfile>
